<mxfile host="app.diagrams.net" modified="2024-02-21T23:14:41.288Z" agent="Mozilla/5.0 (Windows NT 10.0; Win64; x64) AppleWebKit/537.36 (KHTML, like Gecko) Chrome/121.0.0.0 Safari/537.36" etag="iQPpgxITng9MyCjT6N4w" version="23.1.2" type="github">
  <diagram name="Page-1" id="Znv03wbjPnB7TkY9jVQ2">
    <mxGraphModel dx="1434" dy="780" grid="1" gridSize="10" guides="1" tooltips="1" connect="1" arrows="1" fold="1" page="1" pageScale="1" pageWidth="850" pageHeight="1100" math="0" shadow="0">
      <root>
        <mxCell id="0" />
        <mxCell id="1" parent="0" />
        <mxCell id="yPdsZl9cVuc4xFnB3huV-1" value="&lt;font style=&quot;font-size: 28px;&quot;&gt;4&lt;/font&gt;" style="ellipse;whiteSpace=wrap;html=1;aspect=fixed;" vertex="1" parent="1">
          <mxGeometry x="430" y="140" width="110" height="110" as="geometry" />
        </mxCell>
        <mxCell id="yPdsZl9cVuc4xFnB3huV-2" value="&lt;font style=&quot;font-size: 28px;&quot;&gt;10&lt;/font&gt;" style="ellipse;whiteSpace=wrap;html=1;aspect=fixed;" vertex="1" parent="1">
          <mxGeometry x="690" y="450" width="110" height="110" as="geometry" />
        </mxCell>
        <mxCell id="yPdsZl9cVuc4xFnB3huV-5" value="&lt;font style=&quot;font-size: 28px;&quot;&gt;9&lt;/font&gt;" style="ellipse;whiteSpace=wrap;html=1;aspect=fixed;" vertex="1" parent="1">
          <mxGeometry x="560" y="600" width="110" height="110" as="geometry" />
        </mxCell>
        <mxCell id="yPdsZl9cVuc4xFnB3huV-6" value="&lt;font style=&quot;font-size: 28px;&quot;&gt;7&lt;/font&gt;" style="ellipse;whiteSpace=wrap;html=1;aspect=fixed;" vertex="1" parent="1">
          <mxGeometry x="550" y="300" width="110" height="110" as="geometry" />
        </mxCell>
        <mxCell id="yPdsZl9cVuc4xFnB3huV-12" value="&lt;font style=&quot;font-size: 28px;&quot;&gt;1&lt;/font&gt;" style="ellipse;whiteSpace=wrap;html=1;aspect=fixed;" vertex="1" parent="1">
          <mxGeometry x="160" y="430" width="110" height="110" as="geometry" />
        </mxCell>
        <mxCell id="yPdsZl9cVuc4xFnB3huV-13" value="&lt;font style=&quot;font-size: 28px;&quot;&gt;-2&lt;/font&gt;" style="ellipse;whiteSpace=wrap;html=1;aspect=fixed;" vertex="1" parent="1">
          <mxGeometry x="40" y="590" width="110" height="110" as="geometry" />
        </mxCell>
        <mxCell id="yPdsZl9cVuc4xFnB3huV-14" value="&lt;font style=&quot;font-size: 28px;&quot;&gt;2&lt;/font&gt;" style="ellipse;whiteSpace=wrap;html=1;aspect=fixed;" vertex="1" parent="1">
          <mxGeometry x="300" y="280" width="110" height="110" as="geometry" />
        </mxCell>
        <mxCell id="yPdsZl9cVuc4xFnB3huV-15" value="&lt;div style=&quot;font-family: Consolas, &amp;quot;Courier New&amp;quot;, monospace; line-height: 19px;&quot;&gt;&lt;span style=&quot;background-color: rgb(255, 255, 255);&quot;&gt;&lt;font style=&quot;font-size: 25px;&quot;&gt;[1, 7, 3, -2, 2, 10, 9, 4]&lt;/font&gt;&lt;/span&gt;&lt;/div&gt;" style="rounded=0;whiteSpace=wrap;html=1;strokeColor=none;fillColor=none;" vertex="1" parent="1">
          <mxGeometry x="285" y="60" width="405" height="60" as="geometry" />
        </mxCell>
        <mxCell id="yPdsZl9cVuc4xFnB3huV-16" value="" style="endArrow=classic;html=1;rounded=0;exitX=1;exitY=1;exitDx=0;exitDy=0;" edge="1" parent="1" source="yPdsZl9cVuc4xFnB3huV-6" target="yPdsZl9cVuc4xFnB3huV-2">
          <mxGeometry width="50" height="50" relative="1" as="geometry">
            <mxPoint x="490" y="400" as="sourcePoint" />
            <mxPoint x="540" y="350" as="targetPoint" />
          </mxGeometry>
        </mxCell>
        <mxCell id="yPdsZl9cVuc4xFnB3huV-17" value="" style="endArrow=classic;html=1;rounded=0;entryX=1;entryY=0;entryDx=0;entryDy=0;" edge="1" parent="1" source="yPdsZl9cVuc4xFnB3huV-2" target="yPdsZl9cVuc4xFnB3huV-5">
          <mxGeometry width="50" height="50" relative="1" as="geometry">
            <mxPoint x="654" y="404" as="sourcePoint" />
            <mxPoint x="718" y="474" as="targetPoint" />
          </mxGeometry>
        </mxCell>
        <mxCell id="yPdsZl9cVuc4xFnB3huV-18" value="" style="endArrow=classic;html=1;rounded=0;exitX=1;exitY=1;exitDx=0;exitDy=0;entryX=0.273;entryY=0.082;entryDx=0;entryDy=0;entryPerimeter=0;" edge="1" parent="1" source="yPdsZl9cVuc4xFnB3huV-1" target="yPdsZl9cVuc4xFnB3huV-6">
          <mxGeometry width="50" height="50" relative="1" as="geometry">
            <mxPoint x="520" y="240" as="sourcePoint" />
            <mxPoint x="584" y="310" as="targetPoint" />
          </mxGeometry>
        </mxCell>
        <mxCell id="yPdsZl9cVuc4xFnB3huV-19" value="" style="endArrow=classic;html=1;rounded=0;entryX=0.782;entryY=0.1;entryDx=0;entryDy=0;entryPerimeter=0;" edge="1" parent="1" source="yPdsZl9cVuc4xFnB3huV-1" target="yPdsZl9cVuc4xFnB3huV-14">
          <mxGeometry width="50" height="50" relative="1" as="geometry">
            <mxPoint x="534" y="244" as="sourcePoint" />
            <mxPoint x="590" y="319" as="targetPoint" />
          </mxGeometry>
        </mxCell>
        <mxCell id="yPdsZl9cVuc4xFnB3huV-21" value="" style="endArrow=classic;html=1;rounded=0;entryX=0.7;entryY=0.018;entryDx=0;entryDy=0;entryPerimeter=0;exitX=0;exitY=1;exitDx=0;exitDy=0;" edge="1" parent="1" source="yPdsZl9cVuc4xFnB3huV-12" target="yPdsZl9cVuc4xFnB3huV-13">
          <mxGeometry width="50" height="50" relative="1" as="geometry">
            <mxPoint x="316" y="542" as="sourcePoint" />
            <mxPoint x="230" y="600" as="targetPoint" />
          </mxGeometry>
        </mxCell>
        <mxCell id="yPdsZl9cVuc4xFnB3huV-22" value="" style="endArrow=classic;html=1;rounded=0;entryX=1;entryY=0;entryDx=0;entryDy=0;exitX=0;exitY=1;exitDx=0;exitDy=0;" edge="1" parent="1" source="yPdsZl9cVuc4xFnB3huV-14" target="yPdsZl9cVuc4xFnB3huV-12">
          <mxGeometry width="50" height="50" relative="1" as="geometry">
            <mxPoint x="310" y="380" as="sourcePoint" />
            <mxPoint x="250" y="438" as="targetPoint" />
          </mxGeometry>
        </mxCell>
        <mxCell id="yPdsZl9cVuc4xFnB3huV-23" value="" style="endArrow=classic;html=1;rounded=0;exitX=1;exitY=1;exitDx=0;exitDy=0;entryX=0;entryY=0;entryDx=0;entryDy=0;" edge="1" parent="1" source="yPdsZl9cVuc4xFnB3huV-14" target="yPdsZl9cVuc4xFnB3huV-24">
          <mxGeometry width="50" height="50" relative="1" as="geometry">
            <mxPoint x="410" y="400" as="sourcePoint" />
            <mxPoint x="440" y="440" as="targetPoint" />
          </mxGeometry>
        </mxCell>
        <mxCell id="yPdsZl9cVuc4xFnB3huV-24" value="&lt;font style=&quot;font-size: 28px;&quot;&gt;3&lt;/font&gt;" style="ellipse;whiteSpace=wrap;html=1;aspect=fixed;" vertex="1" parent="1">
          <mxGeometry x="425" y="420" width="110" height="110" as="geometry" />
        </mxCell>
        <mxCell id="yPdsZl9cVuc4xFnB3huV-25" value="&lt;div style=&quot;font-family: Consolas, &amp;quot;Courier New&amp;quot;, monospace; line-height: 19px;&quot;&gt;&lt;span style=&quot;background-color: rgb(255, 255, 255);&quot;&gt;&lt;font style=&quot;font-size: 25px;&quot;&gt;[9, 10, 7]&lt;/font&gt;&lt;/span&gt;&lt;/div&gt;" style="rounded=0;whiteSpace=wrap;html=1;strokeColor=none;fillColor=none;" vertex="1" parent="1">
          <mxGeometry x="560" y="240" width="195" height="60" as="geometry" />
        </mxCell>
        <mxCell id="yPdsZl9cVuc4xFnB3huV-26" value="&lt;div style=&quot;font-family: Consolas, &amp;quot;Courier New&amp;quot;, monospace; line-height: 19px;&quot;&gt;&lt;span style=&quot;background-color: rgb(255, 255, 255);&quot;&gt;&lt;font style=&quot;font-size: 25px;&quot;&gt;[9, 10]&lt;/font&gt;&lt;/span&gt;&lt;/div&gt;" style="rounded=0;whiteSpace=wrap;html=1;strokeColor=none;fillColor=none;" vertex="1" parent="1">
          <mxGeometry x="660" y="400" width="190" height="60" as="geometry" />
        </mxCell>
        <mxCell id="yPdsZl9cVuc4xFnB3huV-27" value="&lt;div style=&quot;font-family: Consolas, &amp;quot;Courier New&amp;quot;, monospace; line-height: 19px;&quot;&gt;&lt;span style=&quot;background-color: rgb(255, 255, 255);&quot;&gt;&lt;font style=&quot;font-size: 25px;&quot;&gt;[-2, 1]&lt;/font&gt;&lt;/span&gt;&lt;/div&gt;" style="rounded=0;whiteSpace=wrap;html=1;strokeColor=none;fillColor=none;" vertex="1" parent="1">
          <mxGeometry x="110" y="380" width="195" height="60" as="geometry" />
        </mxCell>
        <mxCell id="yPdsZl9cVuc4xFnB3huV-28" value="&lt;div style=&quot;font-family: Consolas, &amp;quot;Courier New&amp;quot;, monospace; line-height: 19px;&quot;&gt;&lt;span style=&quot;background-color: rgb(255, 255, 255);&quot;&gt;&lt;font style=&quot;font-size: 25px;&quot;&gt;[-2, 1, 3, 2]&lt;/font&gt;&lt;/span&gt;&lt;/div&gt;" style="rounded=0;whiteSpace=wrap;html=1;strokeColor=none;fillColor=none;" vertex="1" parent="1">
          <mxGeometry x="200" y="230" width="195" height="60" as="geometry" />
        </mxCell>
        <mxCell id="yPdsZl9cVuc4xFnB3huV-29" value="&lt;div style=&quot;font-family: Consolas, &amp;quot;Courier New&amp;quot;, monospace; line-height: 19px;&quot;&gt;&lt;span style=&quot;background-color: rgb(255, 255, 255);&quot;&gt;&lt;font style=&quot;font-size: 25px;&quot;&gt;[3]&lt;/font&gt;&lt;/span&gt;&lt;/div&gt;" style="rounded=0;whiteSpace=wrap;html=1;strokeColor=none;fillColor=none;" vertex="1" parent="1">
          <mxGeometry x="382.5" y="370" width="195" height="60" as="geometry" />
        </mxCell>
        <mxCell id="yPdsZl9cVuc4xFnB3huV-30" value="&lt;div style=&quot;font-family: Consolas, &amp;quot;Courier New&amp;quot;, monospace; line-height: 19px;&quot;&gt;&lt;span style=&quot;background-color: rgb(255, 255, 255);&quot;&gt;&lt;font style=&quot;font-size: 25px;&quot;&gt;[9]&lt;/font&gt;&lt;/span&gt;&lt;/div&gt;" style="rounded=0;whiteSpace=wrap;html=1;strokeColor=none;fillColor=none;" vertex="1" parent="1">
          <mxGeometry x="517.5" y="550" width="195" height="60" as="geometry" />
        </mxCell>
        <mxCell id="yPdsZl9cVuc4xFnB3huV-31" value="&lt;div style=&quot;font-family: Consolas, &amp;quot;Courier New&amp;quot;, monospace; line-height: 19px;&quot;&gt;&lt;span style=&quot;background-color: rgb(255, 255, 255);&quot;&gt;&lt;font style=&quot;font-size: 25px;&quot;&gt;[-2]&lt;/font&gt;&lt;/span&gt;&lt;/div&gt;" style="rounded=0;whiteSpace=wrap;html=1;strokeColor=none;fillColor=none;" vertex="1" parent="1">
          <mxGeometry x="20" y="530" width="120" height="60" as="geometry" />
        </mxCell>
      </root>
    </mxGraphModel>
  </diagram>
</mxfile>
